<?xml version="1.0" encoding="UTF-8"?><svg id="Layer_2" xmlns="http://www.w3.org/2000/svg" viewBox="0 0 21.5 39.3"><defs><style>.cls-1{fill:#1500ff;stroke-width:0px;}</style></defs><g id="Layer_1-2"><path class="cls-1" d="M0,31.4c0-2,1.25-3.75,3.55-3.75s3.3,1.75,3.3,3.4c0,2-1.65,3.4-4.15,3.45.75,1.75,2.95,3.15,6.4,3.15,4.6,0,6.6-3.35,6.6-10.1,0-6.4-2.15-9.65-6.65-9.65-2.7,0-5.3,1.4-6.25,4.6h-1.35L3.45,4.25h11.25c3.1,0,3.65-1.45,3.9-3.4l.1-.85h1.6l-1.15,8.75H4.7l-1.1,10.25c1.7-2.3,4.2-3,6.75-3,8.5,0,11.15,7,11.15,11.45,0,4.95-3.25,11.85-11.9,11.85-6.85,0-9.6-3.8-9.6-7.9Z"/></g></svg>