<?xml version="1.0" encoding="UTF-8"?><svg id="Layer_2" xmlns="http://www.w3.org/2000/svg" viewBox="0 0 22.85 35.6"><defs><style>.cls-1{fill:#1500ff;stroke-width:0px;}</style></defs><g id="Layer_1-2"><path class="cls-1" d="M1.3,28.65c0-2,1.35-3.5,3.45-3.5s3.3,1.5,3.3,3.35-1.4,3.25-3.7,3.35c1.3,1.9,3.8,2.25,5.5,2.25,5.15,0,7.1-3.2,7.1-13.5v-3.6c-1,2.75-2.95,4.5-7.05,4.5C5.1,21.5,0,17.35,0,10.75,0,5.05,5.25,0,11.2,0s11.65,4.35,11.65,16.9c0,9.95-3.75,18.7-12.6,18.7-5.7,0-8.95-2.75-8.95-6.95ZM11.2,19.75c4.1,0,5.65-4,5.65-9,0-4.6-1.5-9.15-5.65-9.15-3.75,0-5.6,4.5-5.6,9.15,0,4.95,1.85,9,5.6,9Z"/></g></svg>