<?xml version="1.0" encoding="UTF-8"?><svg id="Layer_2" xmlns="http://www.w3.org/2000/svg" viewBox="0 0 22.9 35.6"><defs><style>.cls-1{fill:#1500ff;stroke-width:0px;}</style></defs><g id="Layer_1-2"><path class="cls-1" d="M11.7,35.6c-5.75,0-11.7-4.5-11.7-16C0,10.8,4.4,0,13.25,0c4.75,0,7.95,2.7,7.95,6.4,0,2.1-1.25,3.5-3.3,3.5-2.25,0-3.5-1.45-3.5-3.3,0-1.95,1.25-3.25,3.55-3.35-.95-1.05-2.55-1.75-4.95-1.75-4.65,0-7.3,3.95-7.3,14.4v2.9c1.3-3.05,3.6-4.7,6.95-4.7,5.05,0,10.25,4.6,10.25,10.75,0,5.7-5.25,10.75-11.2,10.75ZM11.7,34c4,0,5.6-4.55,5.6-9.15,0-4.95-1.6-9-5.6-9-4.35,0-5.65,4.55-5.65,9s1.25,9.15,5.65,9.15Z"/></g></svg>