<?xml version="1.0" encoding="UTF-8"?><svg id="Layer_2" xmlns="http://www.w3.org/2000/svg" viewBox="0 0 23.9 35.6"><defs><style>.cls-1{fill:#1500ff;stroke-width:0px;}</style></defs><g id="Layer_1-2"><path class="cls-1" d="M0,25.35c0-4.2,2.7-8.5,8.95-9.95C3.6,14.15,1.45,11.2,1.45,7.95,1.45,3.45,6.1,0,11.9,0s10.55,3.45,10.55,7.95c0,3.25-2.1,6.2-7.5,7.45,6.25,1.45,8.95,5.75,8.95,9.95,0,4.95-4.45,10.25-11.95,10.25S0,30.3,0,25.35ZM18.05,25.35c-.05-5.15-1.8-9.1-6.1-9.1s-6.05,3.9-6.1,9.1c-.05,5.15,2,8.65,6.1,8.65s6.15-3.5,6.1-8.65ZM16.8,7.95c0-4.35-2.05-6.35-4.9-6.35s-4.8,2.05-4.8,6.35c0,4.55,2.1,6.7,4.85,6.7s4.85-2.1,4.85-6.7Z"/></g></svg>