<?xml version="1.0" encoding="UTF-8"?><svg id="Layer_2" xmlns="http://www.w3.org/2000/svg" viewBox="0 0 22.9 35.05"><defs><style>.cls-1{fill:#ff5e00;stroke-width:0px;}</style></defs><g id="Layer_1-2"><path class="cls-1" d="M.5,33.1c8.1-8.55,14-14.7,16.2-18.15-1,1.15-2.9,2.5-6,2.5C5.75,17.45,0,14.4,0,8.7S6,0,11.8,0s10.4,3.1,10.4,8.7c0,2.25-1.2,4.5-4.25,7.95-2.3,2.9-7.05,7.8-12.5,13.9h9.15c4.45,0,5.9-.2,6.35-4.15l.3-2.7h1.65l-1.3,11.35H.5v-1.95ZM11.2,15.9c3,0,5.5-2.35,5.5-7.15S14.15,1.6,11.1,1.6s-5.45,2.35-5.55,7.15c-.1,4.8,2.4,7.15,5.65,7.15Z"/></g></svg>