<?xml version="1.0" encoding="UTF-8"?><svg id="Layer_2" xmlns="http://www.w3.org/2000/svg" viewBox="0 0 43.35 35.7"><defs><style>.cls-1{fill:#ff5e00;stroke-width:0px;}</style></defs><g id="Layer_1-2"><path class="cls-1" d="M0,35.7v-1.65h6.5V4.65H0v-1.6c6.6,0,9.95-.9,11.55-3.05l1,.25c-.5,1.2-.7,4.25-.7,6.35v27.45h6.25v1.65H0Z"/><path class="cls-1" d="M20.95,33.75c8.1-8.55,14-14.7,16.2-18.15-1,1.15-2.9,2.5-6,2.5-4.95,0-10.7-3.05-10.7-8.75S26.45.65,32.25.65s10.4,3.1,10.4,8.7c0,2.25-1.2,4.5-4.25,7.95-2.3,2.9-7.05,7.8-12.5,13.9h9.15c4.45,0,5.9-.2,6.35-4.15l.3-2.7h1.65l-1.3,11.35h-21.1v-1.95ZM31.65,16.55c3,0,5.5-2.35,5.5-7.15s-2.55-7.15-5.6-7.15-5.45,2.35-5.55,7.15c-.1,4.8,2.4,7.15,5.65,7.15Z"/></g></svg>