<?xml version="1.0" encoding="UTF-8"?><svg id="Layer_2" xmlns="http://www.w3.org/2000/svg" viewBox="0 0 46.2 36.25"><defs><style>.cls-1{fill:#ff5e00;stroke-width:0px;}</style></defs><g id="Layer_1-2"><path class="cls-1" d="M0,35.7v-1.65h6.5V4.65H0v-1.6c6.6,0,9.95-.9,11.55-3.05l1,.25c-.5,1.2-.7,4.25-.7,6.35v27.45h6.25v1.65H0Z"/><path class="cls-1" d="M33.9,36.25c-8.3,0-12.3-10.65-12.3-17.85S25.65.65,33.9.65s12.3,10.45,12.3,17.75-4.05,17.85-12.3,17.85ZM33.9,34.65c4.8,0,6.45-3.95,6.45-16.25s-1.7-16.15-6.45-16.15-6.45,3.65-6.45,16.15,1.7,16.25,6.45,16.25Z"/></g></svg>