<?xml version="1.0" encoding="UTF-8"?><svg id="Layer_2" xmlns="http://www.w3.org/2000/svg" viewBox="0 0 21.95 35.05"><defs><style>.cls-1{fill:#ff5e00;stroke-width:0px;}</style></defs><g id="Layer_1-2"><path class="cls-1" d="M0,26.3c0-2.05,1.25-3.8,3.55-3.8s3.3,1.75,3.3,3.45c0,1.95-1.3,3.35-4.2,3.4,1.2,3.1,4.05,4.05,6.85,4.05,4.2,0,6.7-3.5,6.65-9.1-.05-6.1-3.2-8.9-6.25-8.9-1.2,0-2,.2-3.15,1.05l-.7-.8,10-11.15h-6.7c-5.45,0-6.3.15-6.3,4.9v1.35h-1.65V0h19.45v1.7l-10.75,11.95c10.4,1.1,11.85,6.6,11.85,10.65,0,4.8-3.05,10.75-11.6,10.75-7.55,0-10.35-4.5-10.35-8.75Z"/></g></svg>