<?xml version="1.0" encoding="UTF-8"?><svg id="Layer_1" xmlns="http://www.w3.org/2000/svg" viewBox="0 0 1200 1200"><defs><style>.cls-1{fill:#f8ee55;}.cls-1,.cls-2{stroke-width:0px;}.cls-2{fill:#ce2729;}</style></defs><path class="cls-1" d="m601.45,168.75c-238.17,0-431.25,193.08-431.25,431.25s193.08,431.25,431.25,431.25,431.25-193.08,431.25-431.25-193.08-431.25-431.25-431.25Zm181.49,242.51c43.2,0,78.22,42.25,78.22,94.37s-35.02,94.37-78.22,94.37-78.22-42.25-78.22-94.37,35.02-94.37,78.22-94.37Zm-362.98,0c43.2,0,78.22,42.25,78.22,94.37s-35.02,94.37-78.22,94.37-78.22-42.25-78.22-94.37,35.02-94.37,78.22-94.37Zm-77.36,431.4l-3.18-44.33,520.88-37.41,3.18,44.33-520.88,37.41Z"/><path class="cls-2" d="m814.06,200.91v-101.79h-425v101.79c-148.51,6.82-250,20.56-250,36.4,0,22.63,207.07,40.97,462.5,40.97s462.5-18.34,462.5-40.97c0-15.84-101.49-29.58-250-36.4Z"/></svg>